<svg id="visual" viewBox="0 0 900 600" width="900" height="600" xmlns="http://www.w3.org/2000/svg" xmlns:xlink="http://www.w3.org/1999/xlink" version="1.1"><rect x="0" y="0" width="900" height="600" fill="#001220"></rect><defs><linearGradient id="grad1_0" x1="33.3%" y1="100%" x2="100%" y2="0%"><stop offset="20%" stop-color="#001220" stop-opacity="1"></stop><stop offset="80%" stop-color="#001220" stop-opacity="1"></stop></linearGradient></defs><defs><linearGradient id="grad2_0" x1="0%" y1="100%" x2="66.7%" y2="0%"><stop offset="20%" stop-color="#001220" stop-opacity="1"></stop><stop offset="80%" stop-color="#001220" stop-opacity="1"></stop></linearGradient></defs><g transform="translate(900, 600)"><path d="M-297.5 0C-297.5 -33.2 -297.6 -66.5 -282.9 -91.9C-268.2 -117.4 -238.6 -135 -218.4 -158.7C-198.3 -182.4 -187.5 -212.2 -166.3 -229C-145.2 -245.7 -113.5 -249.4 -84.1 -258.7C-54.6 -267.9 -27.3 -282.7 0 -297.5L0 0Z" fill="#FBAE3C"></path></g><g transform="translate(0, 0)"><path d="M297.5 0C281.5 26.3 265.6 52.7 259.6 84.4C253.6 116.1 257.6 153.1 240.6 174.8C223.7 196.6 185.9 202.9 158.1 217.6C130.3 232.3 112.5 255.4 87.8 270.1C63.1 284.8 31.5 291.1 0 297.5L0 0Z" fill="#FBAE3C"></path></g></svg>